<svg width="720" height="720" viewBox="0 0 720 720" fill="none" xmlns="http://www.w3.org/2000/svg">
<g clip-path="url(#clip0_342_16)">
<path d="M-1.08008 720.1L-1.08008 -1.07996H720.1V720.1H-1.08008Z" fill="#BBBBBB"/>
<path d="M51.12 88.93C47 91.14 35.31 94.37 31.23 96.41V76.86C36.67 74.65 51.8 67.34 56.9 61.73H77.47V199.43H51.12V88.93ZM79.85 160.16V155.4H106V160C106.17 173.43 108.55 179.72 117.22 179.72C126.06 179.72 127.93 172.92 127.93 159.83C127.93 146.06 124.7 138.24 112.63 137.9C111.107 137.723 109.572 137.666 108.04 137.73V118.51H112.12C124.36 118.51 127.93 112.22 127.93 98.11C127.93 87.11 125.38 80.77 116.71 80.77C108.04 80.77 106.2 88.25 106 99V105.12H79.85V97.6C79.85 73.46 93.45 59.86 116.74 59.86C140.2 59.86 153.8 72.78 153.8 96.75C153.8 112.9 146.32 124.12 136.46 126.84C146.46 130.58 153.8 139.76 153.8 159.31C153.8 184.31 143.8 201.81 116.91 201.81C89.37 201.81 79.85 185.15 79.85 160.16ZM239.6 61.63H249.87L260.4 114.28H251.49L249.41 102.12H240.25L238.1 114.28H229.1L239.6 61.63ZM248.37 96L244.8 73.9L241.22 96H248.37ZM282.56 80.61V76.06C282.56 71.64 282.5 68.06 277.62 68.06C272.74 68.06 272.23 71.83 272.23 76.64V99.46C272.23 105.18 273.4 107.91 277.62 107.91C282.37 107.91 282.56 104.2 282.56 99.52V94.78H291.79V99C291.79 107.91 288.93 114.47 278.86 115V118.25C283.67 118.25 286.92 120.4 286.92 124.43C286.92 129.04 282.82 130.99 278.08 130.99C276.494 130.974 274.919 130.735 273.4 130.28V126.18C274.536 126.534 275.72 126.709 276.91 126.7C279.18 126.7 280.91 126.05 280.91 124.3C280.91 121.96 278.25 121.11 275.19 120.79V114.87C265.57 113.87 262.58 106.94 262.58 97.45V78.66C262.58 67.87 266.03 61.04 277.58 61.04C288.37 61.04 291.81 67.04 291.81 76.19V80.61H282.56ZM304.4 61.63H314.67L325.2 114.28H316.3L314.22 102.12H305.05L302.91 114.28H293.91L304.4 61.63ZM306.4 51.63C304.71 51.63 304.12 52.63 304.12 54.3H299.57C299.57 49.62 300.87 46.11 305.1 46.11C308.28 46.11 310.43 49.11 313.22 49.11C314.72 49.11 315.3 48.2 315.3 46.51H319.59C319.59 50.6 318.88 54.7 314.65 54.7C311.29 54.74 309.08 51.68 306.42 51.68L306.4 51.63ZM313.18 96L309.6 73.9L306 96H313.18ZM327.15 97.77V78C327.15 67.34 331.05 61 342.36 61C353.67 61 357.51 67.31 357.51 78V97.77C357.51 108.36 353.61 114.99 342.36 114.99C331.11 114.99 327.15 108.43 327.15 97.77ZM347.76 100V75.8C347.76 71.38 347.04 68.06 342.36 68.06C337.68 68.06 336.9 71.38 336.9 75.8V100C336.9 104.36 337.62 107.87 342.36 107.87C347.1 107.87 347.76 104.4 347.76 100ZM375.64 97.44V78.66C375.64 67.87 379.08 61.04 390.64 61.04C401.44 61.04 404.88 67.04 404.88 76.19V80.61H395.65V76.06C395.65 71.64 395.58 68.06 390.71 68.06C385.84 68.06 385.31 71.83 385.31 76.64V99.46C385.31 105.18 386.48 107.91 390.71 107.91C395.45 107.91 395.65 104.2 395.65 99.52V94.78H404.88V99C404.88 108.3 401.76 115 390.64 115C379.08 115 375.64 107.71 375.64 97.44ZM408.79 97.77V78C408.79 67.34 412.69 61 424 61C435.31 61 439.14 67.31 439.14 78V97.77C439.14 108.36 435.24 114.99 424 114.99C412.76 114.99 408.79 108.43 408.79 97.77ZM429.39 100.04V75.8C429.39 71.38 428.68 68.06 424 68.06C419.32 68.06 418.54 71.38 418.54 75.8V100C418.54 104.36 419.25 107.87 424 107.87C428.75 107.87 429.39 104.4 429.39 100V100.04ZM444.28 61.63H451L463.81 91.63V61.63H471.74V114.28H465.37L452.47 82.82V114.28H444.28V61.63ZM483 68.71H474.61V61.63H500.81V68.71H492.62V114.28H483V68.71ZM503.69 61.63H516.36C526.89 61.63 532.87 65.01 532.87 75.63C532.87 81.94 531.31 86.36 526.37 88.37L533.72 114.31H524.1L517.79 90.19H513.24V114.31H503.69V61.63ZM516.3 84.18C521.82 84.18 523.84 81.78 523.84 76.12C523.84 70.79 522.34 68.19 516.84 68.19H513.26V84.19L516.3 84.18ZM546.07 61.63H556.34L566.87 114.28H558L555.92 102.12H546.76L544.61 114.28H535.61L546.07 61.63ZM554.84 96L551.27 73.9L547.69 96H554.84ZM591.89 61.63H602.16L612.69 114.28H603.79L601.71 102.12H592.54L590.4 114.28H581.4L591.89 61.63ZM600.67 96L597.09 73.9L593.52 96H600.67ZM232.51 147.63H242.51L249.98 184.09L257.72 147.63H267.4L268.4 200.28H261.25L260.47 163.68L252.99 200.28H247.21L239.6 163.55L238.89 200.28H231.6L232.51 147.63ZM273.79 183.25V147.63H283.15V184.35C283.15 189.35 283.73 193.84 288.61 193.84C293.49 193.84 294.13 189.36 294.13 184.35V147.63H303.43V183.25C303.43 194.3 300.37 200.99 288.61 200.99C276.85 200.99 273.79 194.3 273.79 183.25ZM309 147.63H321.41C334.22 147.63 338.12 152.76 338.12 164.01V183.18C338.12 194.75 334.12 200.28 321.8 200.28H309V147.63ZM321.54 193.63C328.11 193.63 328.37 190.12 328.37 183.56V163.36C328.37 157.05 327.72 154.45 321.37 154.45H318.51V193.58L321.54 193.63ZM350.75 147.63H361L371.53 200.28H362.62L360.54 188.12H351.4L349.25 200.28H340.25L350.75 147.63ZM359.52 182L356 159.91L352.37 182H359.52ZM374.86 147.63H381.56L394.36 177.63V147.63H402.29V200.28H395.92L383.05 168.82V200.28H374.86V147.63ZM427.51 166.61V162.06C427.51 157.64 427.45 154.06 422.57 154.06C417.69 154.06 417.18 157.83 417.18 162.64V185.46C417.18 191.18 418.35 193.91 422.57 193.91C427.32 193.91 427.51 190.2 427.51 185.52V180.78H436.74V185C436.74 193.91 433.88 200.47 423.81 201V204.25C428.62 204.25 431.87 206.4 431.87 210.43C431.87 215.04 427.77 216.99 423.03 216.99C421.444 216.974 419.869 216.735 418.35 216.28V212.18C419.486 212.534 420.67 212.709 421.86 212.7C424.13 212.7 425.86 212.05 425.86 210.3C425.86 207.96 423.2 207.11 420.14 206.79V200.87C410.52 199.87 407.53 192.94 407.53 183.45V164.66C407.53 153.87 410.98 147.04 422.53 147.04C433.32 147.04 436.76 153.04 436.76 162.19V166.61H427.51ZM449.35 147.63H459.62L470.15 200.28H461.25L459.17 188.12H450L447.85 200.28H438.85L449.35 147.63ZM458.12 182L454.55 159.9L451 182H458.12ZM486.46 182.92V165.24C486.46 153.93 489.91 147.04 501.46 147.04C512.25 147.04 516.02 152.63 516.02 162.38V165.11H506.85V162.11C506.85 157.04 506.33 154.05 501.59 154.05C496.52 154.05 496.13 158.15 496.13 162.96V184.96C496.13 190.42 497.13 193.87 501.85 193.87C506.57 193.87 507.63 190.23 507.63 184.51V179.57H502V173.52H516.3V200.24H510.06L509.41 195.1C507.98 198.48 505.41 200.95 500.5 200.95C490.1 201 486.46 194 486.46 182.92ZM521.69 147.63H531.25V193.71H544.05V200.28H521.69V147.63ZM545.61 183.77V164C545.61 153.34 549.51 147 560.82 147C572.13 147 576 153.35 576 164V183.76C576 194.35 572.1 200.98 560.85 200.98C549.6 200.98 545.61 194.43 545.61 183.77ZM566.22 186V161.8C566.22 157.38 565.5 154.06 560.82 154.06C556.14 154.06 555.36 157.38 555.36 161.8V186C555.36 190.36 556.08 193.87 560.82 193.87C565.56 193.87 566.22 190.4 566.22 186ZM581.1 147.63H594.1C603.33 147.63 609.51 150.75 609.51 161.15C609.51 167.58 606.84 171.15 601.9 171.94C608.08 173.11 611 177.53 611 184.94C611 195.01 606.06 200.28 596.31 200.28H581.1V147.63ZM594 169.14C599.72 169.14 601.22 166.61 601.22 161.28C601.22 155.69 598.49 154.28 592.64 154.28H590.64V169.1L594 169.14ZM594.39 193.52C600.24 193.52 601.87 190.79 601.87 184.87C601.87 178.63 599.79 175.77 594.07 175.77H590.69V193.52H594.39ZM623.16 147.63H633.43L644 200.28H635.09L633 188.12H623.84L621.69 200.28H612.69L623.16 147.63ZM631.93 182L628.36 159.9L624.78 182H631.93ZM647.27 147.63H656.83V193.71H669.63V200.28H647.27V147.63ZM231.73 233.63H244.15C256.95 233.63 260.85 238.76 260.85 250.01V269.18C260.85 280.75 256.85 286.28 244.54 286.28H231.73V233.63ZM244.28 279.58C250.84 279.58 251.1 276.07 251.1 269.51V249.36C251.1 243.05 250.45 240.45 244.15 240.45H241.29V279.58H244.28ZM265.14 269.77V250C265.14 239.34 269.04 233 280.35 233C291.66 233 295.5 239.31 295.5 250V269.76C295.5 280.35 291.6 286.98 280.35 286.98C269.1 286.98 265.14 280.43 265.14 269.77ZM285.75 272V247.8C285.75 243.38 285.03 240.06 280.35 240.06C275.67 240.06 274.89 243.38 274.89 247.8V272C274.89 276.36 275.61 279.87 280.35 279.87C285.09 279.87 285.75 276.4 285.75 272ZM313.63 269.44V250.66C313.63 239.87 317.08 233.04 328.63 233.04C339.42 233.04 342.86 239.04 342.86 248.19V252.61H333.63V248.06C333.63 243.64 333.57 240.06 328.69 240.06C323.81 240.06 323.3 243.83 323.3 248.64V271.46C323.3 277.18 324.47 279.91 328.69 279.91C333.44 279.91 333.63 276.2 333.63 271.52V266.78H342.86V271C342.86 280.3 339.74 287 328.63 287C317.08 287 313.63 279.71 313.63 269.44ZM347.62 233.63H357.18V279.71H370V286.28H347.62V233.63ZM373.3 233.63H382.79V286.28H373.3V233.63ZM389.74 233.63H399.69L407.16 270.09L414.9 233.63H424.58L425.58 286.28H418.43L417.65 249.68L410.17 286.28H404.39L396.78 249.55L396.07 286.28H388.85L389.74 233.63ZM439.27 233.63H449.54L460.07 286.28H451.17L449.09 274.12H439.92L437.78 286.28H428.78L439.27 233.63ZM448.05 268L444.47 245.9L440.9 268H448.05ZM631.58 466.81C612.5 440 526.19 332.82 365.48 332.6C204.77 332.38 118.16 439.3 99 466.09C98.18 467.23 97.48 468.23 96.9 469.09C97.48 469.96 98.17 470.95 98.99 472.09C118.09 498.91 204.38 606.09 365.12 606.29C525.86 606.49 612.42 499.57 631.57 472.8C632.41 471.64 633.1 470.66 633.65 469.8C633.1 468.96 632.41 467.97 631.58 466.8M275.73 400.16C277.18 398.04 282 391.98 282.59 391.16C283.83 389.57 286.29 389.25 288.01 388.94C289.73 388.63 292.01 389.58 292.26 390.86C292.51 392.14 291.6 397.12 290.75 397.98C288.39 400.42 282.25 403.86 278.87 403.32C276.26 402.91 275.23 400.88 275.73 400.11M270 411.57C270.25 411.27 270.48 411.02 270.58 410.9C272.58 408.6 276.63 408.11 279.41 407.68C282.19 407.25 285.91 408.61 286.36 410.47C286.81 412.33 279.36 415.68 278 416.94C274.13 420.5 268.06 427.75 264.52 428.52C263.552 428.766 262.527 428.66 261.63 428.22C263.95 422.446 266.749 416.876 270 411.57ZM330 535.05C327.81 543.61 325.27 546.69 323.1 549.38C320.93 552.07 312.91 555.58 307.82 555.2C302.73 554.82 302.04 541.2 302.05 534.2C302.05 531.78 298.63 538.94 296.86 524.39C295.74 515.07 289.74 525.39 289.33 519.14C288.92 512.89 285.93 514.14 282.79 510.29C279.65 506.44 275.79 510.66 271.4 512.61C267.01 514.56 268.84 515.61 262.67 513.61C262.51 513.61 262.43 513.52 262.28 513.46C256.471 499.664 253.499 484.839 253.54 469.87C253.54 466.09 253.75 462.38 254.11 458.7C254.311 458.347 254.541 458.013 254.8 457.7C260.74 450.7 260.61 449.06 260.61 449.06L267.16 446.8C273.391 447.805 279.523 449.344 285.49 451.4C291.98 453.85 302.2 459.4 308.14 456.95C312.44 455.18 315.81 452.84 315.41 449.26C314.93 444.77 311.41 443.7 307.11 446.72C305.53 447.83 302.18 439.95 299.54 440.34C296.9 440.73 302.79 449.61 300.54 449.98C298.29 450.35 293.8 440.73 293.03 439.17C292.26 437.61 288.8 433.75 285.67 436.69C279.06 442.96 268.34 442.56 266.18 444.17C259.62 449.07 257.9 442.55 258.05 438.58C258.31 437.67 258.58 436.75 258.87 435.86C261.02 433.5 268.7 432.73 271.34 434.49C274.23 436.43 276.34 434 277.44 432.83C278.54 431.66 278.19 429.83 277.44 428.28C276.69 426.73 278.89 425.58 280.39 425.19C281.89 424.8 286.9 421.3 288.89 420.14C290.88 418.98 301.25 417.74 305.89 420.07C307.726 421.045 309.842 421.355 311.88 420.946C313.918 420.538 315.752 419.437 317.07 417.83C319.355 415.114 322.105 412.825 325.19 411.07C326.82 410.32 321.19 405.07 316.58 410.78C311.97 416.49 309.58 416.98 307.41 416.98C305.24 416.98 292.32 413.73 290.73 409.64C289.14 405.55 294.73 402.51 299.56 400.21C304.39 397.91 317.38 397.99 320.72 397.21C327.5 395.73 336.18 392.33 340.55 395.31C344.92 398.29 322.29 403.36 329.71 407.38C332.35 408.83 344.31 400.52 348.4 398.38C358.04 393.43 339.08 391.76 341.55 381.67C344.35 370.26 318.3 374.67 305.31 375.59C320.359 365.994 337.484 360.135 355.258 358.503C373.031 356.871 390.937 359.512 407.482 366.206C424.027 372.901 438.731 383.455 450.369 396.987C462.006 410.52 470.239 426.639 474.38 444C474.441 445.744 474.255 447.488 473.83 449.18C472.83 453.18 465.15 456.67 460.71 450.18C459.59 448.54 454.79 444 454.94 451.75C455.09 459.5 462.47 460.32 455.31 464.97C448.15 469.62 446.84 468.49 443.53 469.66C440.22 470.83 437.02 478.81 437.8 483.09C438.58 487.37 448.8 499.09 441.22 498.56C439.44 498.42 426.07 489.27 423.87 483.39C421.55 477.2 419.02 471.14 417.22 466.47C415.42 461.8 410.68 460.63 406.67 463.36C402.66 466.09 407.78 468.81 404.9 474.64C402.02 480.47 399.99 485.64 395.79 480.84C384.88 468.3 368.99 474.45 366.52 460.52C365.18 452.96 358.68 453.68 353.24 449.39C347.8 445.1 344.74 442.81 343.82 445.89C343 448.59 360.91 462.82 362.18 466.47C364.07 471.88 356.8 476.64 351.47 477.91C346.14 479.18 343.85 474.91 338.64 469.48C333.43 464.05 331.15 460.16 330.78 464.42C330.25 470.58 335.72 479.64 341.03 483.03C345.55 485.9 350.63 487.21 349.15 491.86C347.67 496.51 349.15 493.86 344.04 498.86C338.93 503.86 337.98 505.53 338.34 512.49C338.7 519.45 336.88 519.89 335.78 525.7C334.68 531.51 332.16 526.48 329.96 535M450.12 490.52C453.89 490.22 459.53 495.44 457.32 497.44C455.11 499.44 449.47 498.69 446.65 496.44C443.83 494.19 448.43 490.62 450.12 490.49M445.37 487.04C444.16 486.59 443.1 485.44 442.19 482.69C441.28 479.94 443.59 478.38 445.85 479.49C448.11 480.6 451.12 484.09 451.12 485.92C451.12 487.75 446.6 487.53 445.37 487.04ZM396 486.86C393.78 488.86 388.12 488.1 385.29 485.86C382.46 483.62 387.09 480.04 388.77 479.91C392.54 479.58 398.19 484.85 396 486.84M350.2 509C348.66 511.52 344.42 530.34 341.6 528.14C338.78 525.94 342.77 506.31 343.6 504.82C348.03 496.71 357.6 497.12 350.21 509M365.33 582C354.68 581.981 344.087 580.446 333.87 577.44C333.072 576.806 332.506 575.925 332.262 574.935C332.018 573.946 332.109 572.903 332.52 571.97C336 562.97 346.32 559.42 354.47 558.65C372.62 556.9 396.47 570.49 400.27 568.31C404.07 566.13 411.76 556.16 423.03 556.59C430.71 556.9 430.65 558.19 433.23 559.16C413.721 574.034 389.852 582.062 365.32 582M444.32 549.51C443.111 549.19 441.936 548.755 440.81 548.21C434.7 545.09 435.43 550.06 432.42 548.96C429.41 547.86 435.83 540.87 426.79 546.76C417.75 552.65 420.23 545.84 416.32 535.87C412.41 525.9 420.87 514.55 428 512C437.73 508.49 443.77 507.78 448.33 506.66C461.79 503.32 464.64 495.34 467.08 500.2C467.54 501.11 467.98 501.98 468.38 502.79C469.471 505.072 470.057 507.561 470.1 510.09C464.421 524.918 455.653 538.369 444.38 549.55M475.13 493.07C472.13 492.24 459.58 474.85 469.53 463.42C471.19 461.54 466.21 456.01 467.53 455.9C472.97 455.48 475.86 458.9 477.28 463.73C477.38 465.87 477.47 468.03 477.46 470.22C477.447 477.897 476.653 485.553 475.09 493.07" fill="white"/>
</g>
<defs>
<clipPath id="clip0_342_16">
<rect width="720" height="720" fill="white"/>
</clipPath>
</defs>
</svg>
