<svg width="720" height="720" viewBox="0 0 720 720" fill="none" xmlns="http://www.w3.org/2000/svg">
<g clip-path="url(#clip0_342_12)">
<path d="M-1.08008 -1.07996H721.08V721.08H-1.08008V-1.07996Z" fill="#BBBBBB"/>
<path d="M49.12 88.93C45 91.14 33.31 94.37 29.23 96.41V76.86C34.67 74.65 49.8 67.34 54.9 61.73H75.47V199.43H49.12V88.93ZM78.36 180.9L111.85 129.39C119.16 118 126.47 108.48 126.47 95.73C126.47 86.89 123.07 82.13 116.47 82.13C106.47 82.13 104.06 91.31 104.06 102.53V108.82H78.36V102C78.36 77.69 88.9 60 115.93 60C140.07 60 152.48 73.43 152.48 96.21C152.48 113.04 143.81 124.77 134.48 138.88L107.96 178.66H148.76V199.4H78.36V180.9ZM227.89 97.44V78.66C227.89 67.87 231.33 61.04 242.89 61.04C253.68 61.04 257.13 67.04 257.13 76.19V80.61H247.9V76.06C247.9 71.64 247.83 68.06 242.96 68.06C238.09 68.06 237.56 71.83 237.56 76.64V99.46C237.56 105.18 238.73 107.91 242.96 107.91C247.7 107.91 247.9 104.2 247.9 99.52V94.78H257.13V99C257.13 108.3 254.01 115 242.89 115C231.33 115 227.89 107.71 227.89 97.44ZM261 97.77V78C261 67.34 264.9 61 276.21 61C287.52 61 291.35 67.31 291.35 78V97.77C291.35 108.36 287.45 114.99 276.21 114.99C264.97 114.99 261 108.43 261 97.77ZM281.6 100.04V75.8C281.6 71.38 280.89 68.06 276.21 68.06C271.53 68.06 270.75 71.38 270.75 75.8V100C270.75 104.36 271.46 107.87 276.21 107.87C280.96 107.87 281.64 104.4 281.64 100L281.6 100.04ZM296.52 61.63H303.22L316.03 91.63V61.63H324V114.28H317.63L304.72 82.82V114.28H296.52V61.63ZM328.7 98.94L337 97.31C337.27 103.55 338.76 107.58 343 107.58C346.06 107.58 347.36 105.5 347.36 102.64C347.36 98.09 345.02 95.56 341.58 92.57L334.94 86.78C331.17 83.53 328.83 79.89 328.83 74.04C328.83 65.72 334.03 61.04 342.42 61.04C352.3 61.04 355.1 67.67 355.62 75.34L347.36 76.77C347.17 71.83 346.45 68.13 342.22 68.13C339.37 68.13 337.8 70.27 337.8 73.07C337.8 76.64 339.3 78.59 342.09 81L348.66 86.78C352.95 90.49 356.53 95.1 356.53 102.06C356.53 109.66 351.2 114.99 343.33 114.99C333.64 115 329.09 109.4 328.7 98.94ZM359.77 97.25V61.63H369.13V98.35C369.13 103.35 369.71 107.84 374.59 107.84C379.47 107.84 380.11 103.36 380.11 98.35V61.63H389.41V97.25C389.41 108.25 386.35 114.99 374.59 114.99C362.83 114.99 359.77 108.3 359.77 97.25ZM395.78 61.63H405.72L413.2 98.09L420.93 61.63H430.62L431.62 114.28H424.46L423.68 77.68L416.21 114.28H410.4L402.8 77.55L402.08 114.28H394.87L395.78 61.63ZM436.6 97.77V78C436.6 67.34 440.5 61 451.81 61C463.12 61 467 67.35 467 78V97.77C467 108.36 463.1 114.99 451.86 114.99C440.62 114.99 436.6 108.43 436.6 97.77ZM457.2 100V75.8C457.2 71.38 456.49 68.06 451.81 68.06C447.13 68.06 446.35 71.38 446.35 75.8V100C446.35 104.36 447.06 107.87 451.81 107.87C456.56 107.87 457.2 104.4 457.2 100ZM485.93 61.63H508V68.39H495.49V83.53H505.37V90.23H495.49V107.71H508.16V114.28H485.93V61.63ZM228.73 147.63H244.2C253.63 147.63 257.66 153.09 257.66 162.63C257.66 172.96 252.07 176.93 243.55 176.93H238.29V200.33H228.73V147.63ZM242 170.12C247.27 170.12 248.63 168.12 248.63 162.51C248.63 156.9 247.92 154.39 242 154.39H238.3V170.12H242ZM261 147.63H273.67C284.2 147.63 290.18 151.01 290.18 161.63C290.18 167.94 288.62 172.36 283.68 174.37L291.03 200.31H281.41L275.1 176.19H270.55V200.31H261V147.63ZM273.61 170.18C279.13 170.18 281.15 167.78 281.15 162.12C281.15 156.79 279.65 154.19 274.15 154.19H270.57V170.19L273.61 170.18ZM294.44 183.77V164C294.44 153.34 298.35 147 309.66 147C320.97 147 324.8 153.31 324.8 164V183.76C324.8 194.35 320.9 200.98 309.66 200.98C298.42 200.98 294.44 194.43 294.44 183.77ZM315.05 186V161.8C315.05 157.38 314.34 154.06 309.66 154.06C304.98 154.06 304.2 157.38 304.2 161.8V186C304.2 190.36 304.91 193.87 309.66 193.87C314.41 193.87 315.05 190.4 315.05 186ZM329.93 147.63H342.35C355.15 147.63 359.06 152.76 359.06 164.01V183.18C359.06 194.75 355.06 200.28 342.74 200.28H329.93V147.63ZM342.48 193.63C349.04 193.63 349.31 190.12 349.31 183.56V163.36C349.31 157.05 348.65 154.45 342.31 154.45H339.45V193.58L342.48 193.63ZM363.8 183.25V147.63H373.16V184.35C373.16 189.35 373.74 193.84 378.62 193.84C383.5 193.84 384.14 189.36 384.14 184.35V147.63H393.44V183.25C393.44 194.3 390.38 200.99 378.62 200.99C366.86 200.99 363.8 194.3 363.8 183.25ZM418.2 166.61V162.06C418.2 157.64 418.14 154.06 413.26 154.06C408.38 154.06 407.87 157.83 407.87 162.64V185.46C407.87 191.18 409.04 193.91 413.26 193.91C418.01 193.91 418.2 190.2 418.2 185.52V180.78H427.43V185C427.43 193.91 424.57 200.47 414.5 201V204.25C419.31 204.25 422.56 206.4 422.56 210.43C422.56 215.04 418.46 216.99 413.72 216.99C412.134 216.974 410.559 216.735 409.04 216.28V212.18C410.176 212.534 411.36 212.709 412.55 212.7C414.82 212.7 416.55 212.05 416.55 210.3C416.55 207.96 413.89 207.11 410.83 206.79V200.87C401.21 199.87 398.22 192.94 398.22 183.45V164.66C398.22 153.87 401.67 147.04 413.22 147.04C424.01 147.04 427.45 153.04 427.45 162.19V166.61H418.2ZM440 147.63H450.27L460.8 200.28H451.9L449.82 188.12H440.65L438.51 200.28H429.51L440 147.63ZM442 137.68C440.31 137.68 439.72 138.68 439.72 140.35H435.17C435.17 135.67 436.47 132.16 440.7 132.16C443.88 132.16 446.03 135.16 448.82 135.16C450.32 135.16 450.9 134.25 450.9 132.56H455.19C455.19 136.65 454.48 140.75 450.25 140.75C446.93 140.74 444.72 137.68 442.06 137.68H442ZM448.82 182L445.24 159.9L441.67 182H448.82ZM462.79 183.77V164C462.79 153.34 466.69 147 478 147C489.31 147 493.15 153.31 493.15 164V183.76C493.15 194.35 489.25 200.98 478 200.98C466.75 200.98 462.79 194.43 462.79 183.77ZM483.4 186V161.8C483.4 157.38 482.68 154.06 478 154.06C473.32 154.06 472.54 157.38 472.54 161.8V186C472.54 190.36 473.26 193.87 478 193.87C482.74 193.87 483.4 190.4 483.4 186ZM228.73 233.63H241.41C251.94 233.63 257.92 237.01 257.92 247.63C257.92 253.94 256.36 258.36 251.42 260.37L258.76 286.31H249.14L242.84 262.19H238.29V286.31H228.73V233.63ZM241.34 256.18C246.87 256.18 248.88 253.78 248.88 248.12C248.88 242.79 247.39 240.19 241.88 240.19H238.31V256.19L241.34 256.18ZM263.25 233.63H285.35V240.39H272.8V255.53H282.68V262.23H272.8V279.71H285.48V286.28H263.25V233.63ZM287.81 270.94L296.07 269.31C296.33 275.55 297.82 279.58 302.07 279.58C305.12 279.58 306.43 277.5 306.43 274.64C306.43 270.09 304.08 267.56 300.64 264.57L294 258.78C290.23 255.53 287.89 251.89 287.89 246.04C287.89 237.72 293.09 233.04 301.48 233.04C311.36 233.04 314.15 239.67 314.67 247.34L306.42 248.77C306.22 243.83 305.51 240.13 301.28 240.13C298.42 240.13 296.86 242.27 296.86 245.07C296.86 248.64 298.36 250.59 301.15 253L307.72 258.78C312.01 262.49 315.58 267.1 315.58 274.06C315.58 281.66 310.25 286.99 302.39 286.99C292.76 287 288.2 281.4 287.81 270.94ZM319.27 233.63H334.74C344.17 233.63 348.2 239.09 348.2 248.63C348.2 258.96 342.61 262.93 334.09 262.93H328.83V286.33H319.27V233.63ZM332.53 256.12C337.8 256.12 339.16 254.12 339.16 248.51C339.16 242.9 338.45 240.39 332.53 240.39H328.83V256.12H332.53ZM350.73 269.77V250C350.73 239.34 354.63 233 365.94 233C377.25 233 381.09 239.31 381.09 250V269.76C381.09 280.35 377.19 286.98 365.94 286.98C354.69 286.98 350.73 280.43 350.73 269.77ZM371.34 272V247.8C371.34 243.38 370.62 240.06 365.94 240.06C361.26 240.06 360.48 243.38 360.48 247.8V272C360.48 276.36 361.2 279.87 365.94 279.87C370.68 279.87 371.34 276.4 371.34 272ZM386.22 233.63H392.92L405.72 263.63V233.63H413.65V286.28H407.28L394.41 254.82V286.28H386.22V233.63ZM418.4 270.94L426.65 269.31C426.91 275.55 428.41 279.58 432.65 279.58C435.71 279.58 437.01 277.5 437.01 274.64C437.01 270.09 434.67 267.56 431.22 264.57L424.59 258.78C420.82 255.53 418.48 251.89 418.48 246.04C418.48 237.72 423.68 233.04 432.07 233.04C441.95 233.04 444.74 239.67 445.26 247.34L437 248.77C436.8 243.83 436.09 240.13 431.86 240.13C429 240.13 427.44 242.27 427.44 245.07C427.44 248.64 428.94 250.59 431.73 253L438.3 258.78C442.59 262.49 446.16 267.1 446.16 274.06C446.16 281.66 440.83 286.99 432.97 286.99C423.34 287 418.79 281.4 418.4 270.94ZM457.46 233.63H467.73L478.26 286.28H469.36L467.28 274.12H458.11L456 286.28H447L457.46 233.63ZM466.24 268L462.66 245.9L459.09 268H466.24ZM463.9 217H472.9L465.16 230H460L463.9 217ZM477.16 233.63H485.61L492.56 270.87L499.13 233.63H507.77L497.18 286.28H487.75L477.16 233.63ZM511.22 233.63H533.32V240.39H520.77V255.53H530.65V262.23H520.77V279.71H533.45V286.28H511.22V233.63ZM537.35 233.63H546.84V286.28H537.35V233.63ZM551.71 270.94L559.97 269.31C560.23 275.55 561.72 279.58 565.97 279.58C568.97 279.58 570.32 277.5 570.32 274.64C570.32 270.09 567.98 267.56 564.54 264.57L557.91 258.78C554.13 255.53 551.79 251.89 551.79 246.04C551.79 237.72 557 233.04 565.38 233.04C575.26 233.04 578.06 239.67 578.58 247.34L570.32 248.77C570.13 243.83 569.41 240.13 565.19 240.13C562.33 240.13 560.77 242.27 560.77 245.07C560.77 248.64 562.26 250.59 565.06 253L571.62 258.78C575.91 262.49 579.49 267.1 579.49 274.06C579.49 281.66 574.16 286.99 566.29 286.99C556.65 287 552.1 281.4 551.71 270.94ZM544.11 373.67C512.11 348.37 469.62 347.85 454.11 351.55L452.31 351.97C434.36 356.21 405.84 363.22 372.46 404.65C372.27 404.88 372.08 405.11 371.9 405.35L371.48 405.86C371.129 406.324 370.933 406.888 370.92 407.47C370.921 407.956 371.045 408.434 371.28 408.86L372.06 410.14C376.25 417.14 381.53 426.14 386 434.48C386.046 434.56 386.086 434.644 386.12 434.73C386.36 435.2 386.725 435.596 387.175 435.872C387.625 436.149 388.142 436.297 388.67 436.3C389.416 436.308 390.135 436.021 390.67 435.5C390.88 435.23 391.09 434.94 391.28 434.65C420.91 393.65 444.2 388.02 459.96 384.31L461.85 383.87C470.03 381.87 501.13 382.02 523.58 399.75C541.1 413.58 550 435.59 550 465.16C550 514.77 525.87 534.16 505.62 541.72C474.26 553.45 444.18 537.72 443.96 537.65L442.61 537C425.38 529.52 399.67 514 375.43 465.28C326.52 367.19 285.67 358 258.64 351.83L257.19 351.51C244.88 348.72 202.13 346.74 168.53 373.56C150.97 387.56 130.06 414.8 130.06 464.97C130.06 495.53 136.34 515.72 152.48 536.97C156.02 541.81 192.19 588.28 262.12 574.87C273.31 572.73 288.48 567.39 305.12 554.87L320.51 568.75C321.004 569.188 321.65 569.415 322.31 569.384C322.969 569.352 323.59 569.063 324.04 568.58C324.456 568.125 324.678 567.526 324.66 566.91V566.7L335.76 498.4V497.64C335.756 497.296 335.681 496.957 335.54 496.644C335.399 496.331 335.195 496.05 334.94 495.82C334.496 495.413 333.912 495.194 333.31 495.21H332.83L332.11 495.29L266.69 513.6L265.5 513.8C265.013 513.895 264.572 514.153 264.25 514.53C264.026 514.773 263.853 515.057 263.741 515.368C263.628 515.678 263.579 516.008 263.596 516.338C263.612 516.668 263.695 516.991 263.838 517.288C263.981 517.586 264.183 517.851 264.43 518.07L265.2 518.78L279.86 532.02C270.39 538.15 262.14 540.96 255.86 542.18C205.26 551.83 180.28 518.7 179.33 517.4L179 517C167.24 501.57 163.27 488.45 163.27 465C163.27 435.34 172.01 413.31 189.27 399.55C211.15 382.09 241.33 381.99 249.85 383.93L251.32 384.26C273.47 389.26 303.83 396.14 345.63 480.12C367.35 523.72 394.54 552.23 428.77 567.26C445.02 575.127 462.826 579.255 480.88 579.34C493.267 579.379 505.562 577.197 517.18 572.9C537.02 565.5 583.18 540.2 583.18 465.19C583.18 415.06 561.95 387.77 544.18 373.7" fill="white"/>
</g>
<defs>
<clipPath id="clip0_342_12">
<rect width="720" height="720" fill="white"/>
</clipPath>
</defs>
</svg>
