<svg width="720" height="720" viewBox="0 0 720 720" fill="none" xmlns="http://www.w3.org/2000/svg">
<g clip-path="url(#clip0_342_7)">
<path d="M-1.08008 -1.07996H721.08V721.08H-1.08008V-1.07996Z" fill="#BBBBBB"/>
<path d="M50.12 88.93C46 91.14 34.31 94.37 30.23 96.41V76.86C35.67 74.65 50.8 67.34 55.9 61.73H76.47V199.43H50.12V88.93Z" fill="white"/>
<path d="M86.3299 88.93C82.2499 91.14 70.5199 94.37 66.4399 96.41V76.86C71.8799 74.65 86.9999 67.34 92.1099 61.73H112.68V199.43H86.3299V88.93ZM192.85 97.44V78.66C192.85 67.87 196.3 61.04 207.85 61.04C218.64 61.04 222.09 67.04 222.09 76.19V80.61H212.86V76.06C212.86 71.64 212.79 68.06 207.92 68.06C203.05 68.06 202.52 71.83 202.52 76.64V99.46C202.52 105.18 203.69 107.91 207.92 107.91C212.66 107.91 212.86 104.2 212.86 99.52V94.78H222.09V99C222.09 108.3 218.97 115 207.85 115C196.3 115 192.85 107.71 192.85 97.44ZM226.39 61.63H235.88V114.28H226.39V61.63ZM241.34 61.63H253.76C266.56 61.63 270.46 66.76 270.46 78.01V97.18C270.46 108.75 266.46 114.28 254.15 114.28H241.34V61.63ZM253.89 107.58C260.45 107.58 260.71 104.07 260.71 97.51V77.36C260.71 71.05 260.06 68.45 253.76 68.45H250.9V107.58H253.89ZM282.36 61.63H292.63L303.16 114.28H294.26L292.17 102.12H283L280.85 114.28H271.85L282.36 61.63ZM291.13 96L287.56 73.9L284 96H291.13ZM305.76 61.63H318.17C330.98 61.63 334.88 66.76 334.88 78.01V97.18C334.88 108.75 330.88 114.28 318.56 114.28H305.76V61.63ZM318.3 107.58C324.87 107.58 325.13 104.07 325.13 97.51V77.36C325.13 71.05 324.48 68.45 318.13 68.45H315.27V107.58H318.3ZM339.3 61.63H361.4V68.39H348.85V83.53H358.73V90.23H348.85V107.71H361.53V114.28H339.3V61.63ZM363.15 98.94L371.41 97.31C371.67 103.55 373.16 107.58 377.41 107.58C380.46 107.58 381.76 105.5 381.76 102.64C381.76 98.09 379.42 95.56 375.98 92.57L369.35 86.78C365.58 83.53 363.24 79.89 363.24 74.04C363.24 65.72 368.44 61.04 376.82 61.04C386.7 61.04 389.5 67.67 390.02 75.34L381.76 76.77C381.57 71.83 380.85 68.13 376.63 68.13C373.77 68.13 372.21 70.27 372.21 73.07C372.21 76.64 373.7 78.59 376.5 81L383 86.78C387.29 90.49 390.87 95.1 390.87 102.06C390.87 109.66 385.54 114.99 377.67 114.99C368.09 115 363.54 109.4 363.15 98.94ZM407 61.63H429.1V68.39H416.58V83.53H426.46V90.23H416.58V107.71H429.26V114.28H407V61.63ZM192.85 183.44V164.66C192.85 153.87 196.3 147.04 207.85 147.04C218.64 147.04 222.09 153.04 222.09 162.19V166.61H212.86V162.06C212.86 157.64 212.79 154.06 207.92 154.06C203.05 154.06 202.52 157.83 202.52 162.64V185.46C202.52 191.18 203.69 193.91 207.92 193.91C212.66 193.91 212.86 190.2 212.86 185.52V180.78H222.09V185C222.09 194.3 218.97 201 207.85 201C196.3 201 192.85 193.71 192.85 183.44ZM225.29 183.77V164C225.29 153.34 229.19 147 240.5 147C251.81 147 255.65 153.31 255.65 164V183.76C255.65 194.35 251.75 200.98 240.5 200.98C229.25 200.98 225.29 194.43 225.29 183.77ZM245.9 186V161.8C245.9 157.38 245.18 154.06 240.5 154.06C235.82 154.06 235 157.38 235 161.8V186C235 190.36 235.72 193.87 240.46 193.87C245.2 193.87 245.9 190.4 245.9 186ZM260.84 147.63H270.84L278.31 184.09L286 147.63H295.68L296.68 200.28H289.53L288.75 163.68L281.27 200.28H275.49L267.88 163.55L267.17 200.28H259.95L260.84 147.63ZM301.4 183.25V147.63H310.76V184.35C310.76 189.35 311.35 193.84 316.22 193.84C321.09 193.84 321.75 189.36 321.75 184.35V147.63H331.05V183.25C331.05 194.3 327.99 200.99 316.22 200.99C304.45 200.99 301.4 194.3 301.4 183.25ZM335.92 147.63H342.61L355.42 177.63V147.63H363.35V200.28H357L344.13 168.82V200.28H335.94L335.92 147.63ZM368.94 147.63H378.43V200.28H368.94V147.63ZM383.89 147.63H396.3C409.11 147.63 413.01 152.76 413.01 164.01V183.18C413.01 194.75 409.01 200.28 396.69 200.28H383.89V147.63ZM396.43 193.63C403 193.63 403.26 190.12 403.26 183.56V163.36C403.26 157.05 402.61 154.45 396.26 154.45H393.4V193.58L396.43 193.63ZM424.9 147.63H435.17L445.7 200.28H436.8L434.72 188.12H425.55L423.41 200.28H414.41L424.9 147.63ZM433.68 182L430.1 159.9L426.53 182H433.68ZM448.3 147.63H460.72C473.52 147.63 477.42 152.76 477.42 164.01V183.18C477.42 194.75 473.42 200.28 461.11 200.28H448.3V147.63ZM460.85 193.63C467.41 193.63 467.67 190.12 467.67 183.56V163.36C467.67 157.05 467.02 154.45 460.72 154.45H457.86V193.58L460.85 193.63ZM481.84 147.63H503.94V154.39H491.4V169.53H501.28V176.23H491.4V193.71H504.07V200.28H481.84V147.63ZM505.7 184.94L513.95 183.31C514.21 189.55 515.71 193.58 519.95 193.58C523.01 193.58 524.31 191.5 524.31 188.64C524.31 184.09 521.97 181.56 518.52 178.57L511.89 172.78C508.12 169.53 505.78 165.89 505.78 160.04C505.78 151.72 510.98 147.04 519.37 147.04C529.25 147.04 532.04 153.67 532.56 161.34L524.31 162.77C524.11 157.83 523.4 154.13 519.17 154.13C516.31 154.13 514.75 156.27 514.75 159.07C514.75 162.64 516.25 164.59 519.04 167L525.61 172.78C529.9 176.49 533.47 181.1 533.47 188.06C533.47 195.66 528.14 200.99 520.28 200.99C510.64 201 506.09 195.4 505.7 184.94ZM192.4 270.94L200.66 269.31C200.92 275.55 202.41 279.58 206.66 279.58C209.72 279.58 211.02 277.5 211.02 274.64C211.02 270.09 208.68 267.56 205.24 264.57L198.61 258.78C194.83 255.53 192.49 251.89 192.49 246.04C192.49 237.72 197.7 233.04 206.08 233.04C215.96 233.04 218.76 239.67 219.28 247.34L211 248.77C210.81 243.83 210.09 240.13 205.87 240.13C203.01 240.13 201.44 242.27 201.44 245.07C201.44 248.64 202.94 250.59 205.74 253L212.3 258.78C216.59 262.49 220.17 267.1 220.17 274.06C220.17 281.66 214.84 286.99 206.97 286.99C197.34 287 192.79 281.4 192.4 270.94ZM222.75 269.25V233.63H232.11V270.35C232.11 275.35 232.7 279.84 237.57 279.84C242.44 279.84 243.1 275.36 243.1 270.35V233.63H252.4V269.25C252.4 280.3 249.34 286.99 237.57 286.99C225.8 286.99 222.75 280.3 222.75 269.25ZM256 270.94L264.25 269.31C264.51 275.55 266.01 279.58 270.25 279.58C273.31 279.58 274.61 277.5 274.61 274.64C274.61 270.09 272.27 267.56 268.82 264.57L262.19 258.78C258.42 255.53 256.08 251.89 256.08 246.04C256.08 237.72 261.28 233.04 269.67 233.04C279.55 233.04 282.35 239.67 282.86 247.34L274.61 248.77C274.41 243.83 273.7 240.13 269.47 240.13C266.61 240.13 265.05 242.27 265.05 245.07C265.05 248.64 266.55 250.59 269.34 253L275.91 258.78C280.2 262.49 283.77 267.1 283.77 274.06C283.77 281.66 278.44 286.99 270.58 286.99C260.91 287 256.36 281.4 256 270.94ZM292 240.71H283.61V233.63H309.81V240.71H301.6V286.28H292V240.71ZM311.93 233.63H334V240.39H321.49V255.53H331.37V262.23H321.49V279.71H334.16V286.28H311.93V233.63ZM337.09 233.63H343.78L356.59 263.63V233.63H364.52V286.28H358.15L345.28 254.82V286.28H337.09V233.63ZM375.11 240.71H366.73V233.63H392.92V240.71H384.73V286.28H375.11V240.71ZM401.63 233.63H411.9L422.43 286.28H413.53L411.45 274.12H402.28L400.14 286.28H391.14L401.63 233.63ZM410.41 268L406.83 245.9L403.26 268H410.41ZM408.07 217H417.07L409.33 230H404.2L408.07 217ZM420.61 233.63H429.06L436.06 270.87L442.62 233.63H451.27L440.67 286.28H431.25L420.61 233.63ZM454 233.63H476.1V240.39H463.51V255.53H473.39V262.23H463.51V279.71H476.19V286.28H454V233.63ZM479.37 233.63H488.86V286.28H479.37V233.63ZM493 270.94L501.25 269.31C501.51 275.55 503.01 279.58 507.25 279.58C510.31 279.58 511.61 277.5 511.61 274.64C511.61 270.09 509.27 267.56 505.82 264.57L499.19 258.78C495.42 255.53 493.08 251.89 493.08 246.04C493.08 237.72 498.28 233.04 506.67 233.04C516.55 233.04 519.34 239.67 519.87 247.34L511.61 248.77C511.41 243.83 510.7 240.13 506.47 240.13C503.61 240.13 502.05 242.27 502.05 245.07C502.05 248.64 503.55 250.59 506.34 253L512.91 258.78C517.2 262.49 520.77 267.1 520.77 274.06C520.77 281.66 515.44 286.99 507.58 286.99C498 287 493.41 281.4 493 270.94ZM166.8 566H261.54C261.989 566.001 262.428 565.872 262.804 565.627C263.181 565.383 263.478 565.034 263.659 564.624C263.841 564.213 263.898 563.759 263.826 563.316C263.753 562.873 263.553 562.461 263.25 562.13L263.12 561.99L216 501L215.54 500.5C215.322 500.26 215.057 500.069 214.76 499.938C214.464 499.807 214.144 499.74 213.82 499.74C213.258 499.753 212.719 499.966 212.3 500.34L212.01 500.67L211.57 501.16L165.57 561.51L164.86 562.37C164.624 562.721 164.488 563.13 164.467 563.552C164.445 563.975 164.539 564.395 164.739 564.768C164.938 565.141 165.235 565.453 165.598 565.67C165.962 565.887 166.377 566.001 166.8 566ZM261.25 574.61H166.33C166.024 574.61 165.721 574.67 165.438 574.787C165.156 574.905 164.899 575.076 164.682 575.292C164.466 575.509 164.294 575.766 164.177 576.048C164.06 576.331 164 576.634 164 576.94V651.22C163.999 651.527 164.058 651.831 164.174 652.115C164.291 652.399 164.462 652.657 164.679 652.874C164.895 653.092 165.153 653.264 165.436 653.382C165.719 653.499 166.023 653.56 166.33 653.56H196.88V606.82C196.879 606.515 196.938 606.212 197.054 605.929C197.17 605.647 197.34 605.39 197.556 605.173C197.771 604.957 198.028 604.785 198.31 604.668C198.592 604.55 198.894 604.49 199.2 604.49H227.56C228.178 604.49 228.771 604.736 229.208 605.172C229.644 605.609 229.89 606.202 229.89 606.82V653.56H261.25C261.869 653.557 262.461 653.31 262.898 652.871C263.335 652.433 263.58 651.839 263.58 651.22V576.94C263.58 576.634 263.52 576.331 263.403 576.048C263.285 575.766 263.114 575.509 262.897 575.292C262.681 575.076 262.424 574.905 262.142 574.787C261.859 574.67 261.556 574.61 261.25 574.61ZM589.33 555.17H495.33C495.032 555.163 494.736 555.216 494.458 555.325C494.181 555.434 493.928 555.597 493.714 555.804C493.5 556.012 493.329 556.26 493.212 556.533C493.094 556.807 493.033 557.102 493.03 557.4V652.27C493.04 652.87 493.288 653.442 493.719 653.86C494.151 654.278 494.73 654.508 495.33 654.5H589.33C589.628 654.505 589.923 654.452 590.2 654.342C590.477 654.233 590.73 654.07 590.943 653.863C591.157 653.656 591.328 653.408 591.446 653.135C591.563 652.862 591.626 652.568 591.63 652.27V557.4C591.627 557.102 591.566 556.807 591.448 556.533C591.331 556.26 591.16 556.012 590.946 555.804C590.732 555.597 590.479 555.434 590.202 555.325C589.924 555.216 589.628 555.163 589.33 555.17ZM537.92 617.1C537.919 617.399 537.858 617.694 537.742 617.969C537.626 618.244 537.457 618.493 537.244 618.702C537.031 618.912 536.779 619.077 536.502 619.188C536.225 619.299 535.928 619.354 535.63 619.35H507.56C507.261 619.354 506.963 619.299 506.685 619.188C506.407 619.077 506.153 618.912 505.939 618.704C505.724 618.495 505.553 618.245 505.435 617.97C505.317 617.695 505.254 617.399 505.25 617.1V600.05C505.254 599.751 505.317 599.456 505.435 599.181C505.553 598.907 505.725 598.658 505.939 598.45C506.154 598.242 506.408 598.078 506.686 597.968C506.964 597.859 507.261 597.805 507.56 597.81H535.63C535.928 597.805 536.224 597.859 536.501 597.969C536.778 598.079 537.03 598.243 537.243 598.451C537.456 598.66 537.626 598.908 537.742 599.183C537.858 599.457 537.919 599.752 537.92 600.05V617.1ZM537.92 585.58C537.912 586.18 537.667 586.753 537.237 587.173C536.808 587.593 536.23 587.825 535.63 587.82H507.56C506.957 587.828 506.375 587.597 505.942 587.177C505.509 586.757 505.26 586.183 505.25 585.58V568.51C505.26 567.907 505.509 567.333 505.942 566.913C506.375 566.493 506.957 566.262 507.56 566.27H535.63C535.928 566.266 536.223 566.321 536.499 566.431C536.776 566.542 537.028 566.706 537.24 566.914C537.453 567.122 537.623 567.37 537.739 567.644C537.856 567.918 537.917 568.212 537.92 568.51V585.58ZM580.82 617.1C580.819 617.399 580.758 617.696 580.641 617.971C580.525 618.247 580.354 618.497 580.14 618.706C579.926 618.915 579.673 619.08 579.395 619.191C579.117 619.301 578.819 619.355 578.52 619.35H550.46C550.161 619.355 549.863 619.301 549.585 619.191C549.307 619.08 549.054 618.915 548.84 618.706C548.626 618.497 548.455 618.247 548.339 617.971C548.222 617.696 548.161 617.399 548.16 617.1V600.05C548.163 599.752 548.224 599.457 548.341 599.182C548.459 598.907 548.629 598.659 548.843 598.451C549.057 598.242 549.31 598.079 549.587 597.969C549.865 597.859 550.162 597.805 550.46 597.81H578.52C578.818 597.805 579.115 597.859 579.392 597.969C579.67 598.079 579.923 598.242 580.137 598.451C580.351 598.659 580.521 598.907 580.638 599.182C580.756 599.457 580.817 599.752 580.82 600.05V617.1ZM580.82 585.58C580.816 585.878 580.753 586.173 580.636 586.446C580.518 586.72 580.347 586.968 580.134 587.176C579.92 587.384 579.668 587.548 579.391 587.659C579.114 587.769 578.818 587.824 578.52 587.82H550.46C550.162 587.824 549.866 587.769 549.589 587.659C549.312 587.548 549.06 587.384 548.846 587.176C548.632 586.968 548.462 586.72 548.344 586.446C548.226 586.173 548.164 585.878 548.16 585.58V568.51C548.163 568.212 548.224 567.917 548.341 567.642C548.459 567.367 548.629 567.119 548.843 566.911C549.057 566.702 549.31 566.539 549.587 566.429C549.865 566.319 550.162 566.265 550.46 566.27H578.52C578.818 566.265 579.115 566.319 579.392 566.429C579.67 566.539 579.923 566.702 580.137 566.911C580.351 567.119 580.521 567.367 580.638 567.642C580.756 567.917 580.817 568.212 580.82 568.51V585.58ZM370.93 335H279C278.705 335 278.413 335.058 278.14 335.171C277.868 335.285 277.621 335.451 277.412 335.66C277.204 335.869 277.04 336.117 276.928 336.39C276.816 336.663 276.759 336.955 276.76 337.25V651.43C276.76 652.025 276.996 652.596 277.415 653.018C277.835 653.439 278.405 653.677 279 653.68H370.95C371.547 653.677 372.119 653.44 372.542 653.019C372.965 652.598 373.205 652.027 373.21 651.43V337.2C373.207 336.602 372.968 336.03 372.544 335.608C372.121 335.187 371.548 334.95 370.95 334.95M316.25 617.88C316.25 618.199 316.124 618.505 315.899 618.732C315.674 618.959 315.369 619.087 315.05 619.09H294C293.681 619.087 293.376 618.959 293.151 618.732C292.926 618.505 292.8 618.199 292.8 617.88V594.42C292.8 594.102 292.926 593.797 293.151 593.572C293.376 593.346 293.682 593.22 294 593.22H315C315.318 593.22 315.623 593.346 315.848 593.572C316.074 593.797 316.2 594.102 316.2 594.42L316.25 617.88ZM316.25 564C316.251 564.158 316.221 564.315 316.161 564.461C316.101 564.607 316.013 564.74 315.901 564.852C315.79 564.963 315.657 565.052 315.511 565.111C315.365 565.171 315.208 565.201 315.05 565.2H294C293.842 565.201 293.685 565.171 293.539 565.111C293.393 565.052 293.26 564.963 293.148 564.852C293.037 564.74 292.948 564.607 292.889 564.461C292.829 564.315 292.799 564.158 292.8 564V540.54C292.799 540.382 292.829 540.225 292.889 540.079C292.948 539.933 293.037 539.8 293.148 539.689C293.26 539.577 293.393 539.489 293.539 539.429C293.685 539.369 293.842 539.339 294 539.34H315C315.158 539.339 315.315 539.369 315.461 539.429C315.607 539.489 315.74 539.577 315.851 539.689C315.963 539.8 316.051 539.933 316.111 540.079C316.171 540.225 316.201 540.382 316.2 540.54L316.25 564ZM316.25 510.13C316.25 510.448 316.124 510.754 315.898 510.979C315.673 511.204 315.368 511.33 315.05 511.33H294C293.682 511.33 293.376 511.204 293.151 510.979C292.926 510.754 292.8 510.448 292.8 510.13V486.66C292.8 486.341 292.926 486.035 293.151 485.808C293.376 485.581 293.681 485.453 294 485.45H315C315.319 485.453 315.624 485.581 315.849 485.808C316.074 486.035 316.2 486.341 316.2 486.66L316.25 510.13ZM316.25 456.24C316.25 456.559 316.124 456.865 315.899 457.092C315.674 457.319 315.369 457.447 315.05 457.45H294C293.681 457.447 293.376 457.319 293.151 457.092C292.926 456.865 292.8 456.559 292.8 456.24V432.77C292.8 432.613 292.831 432.457 292.891 432.312C292.952 432.167 293.04 432.036 293.152 431.925C293.264 431.814 293.396 431.727 293.541 431.668C293.687 431.609 293.843 431.579 294 431.58H315C315.157 431.579 315.313 431.609 315.458 431.668C315.604 431.727 315.736 431.814 315.848 431.925C315.959 432.036 316.048 432.167 316.108 432.312C316.169 432.457 316.2 432.613 316.2 432.77L316.25 456.24ZM316.25 402.37C316.25 402.688 316.124 402.994 315.898 403.219C315.673 403.444 315.368 403.57 315.05 403.57H294C293.682 403.57 293.376 403.444 293.151 403.219C292.926 402.994 292.8 402.688 292.8 402.37V378.9C292.8 378.582 292.926 378.277 293.151 378.052C293.376 377.826 293.682 377.7 294 377.7H315C315.318 377.7 315.623 377.826 315.848 378.052C316.074 378.277 316.2 378.582 316.2 378.9L316.25 402.37ZM357.54 617.88C357.54 618.04 357.508 618.198 357.447 618.345C357.385 618.493 357.295 618.627 357.182 618.739C357.069 618.852 356.934 618.941 356.786 619.001C356.638 619.061 356.48 619.091 356.32 619.09H335.32C334.999 619.09 334.691 618.963 334.464 618.736C334.237 618.509 334.11 618.201 334.11 617.88V594.42C334.11 594.262 334.141 594.105 334.202 593.958C334.263 593.812 334.352 593.68 334.465 593.568C334.577 593.456 334.711 593.368 334.858 593.309C335.004 593.249 335.162 593.219 335.32 593.22H356.32C356.479 593.217 356.637 593.246 356.785 593.306C356.933 593.365 357.068 593.453 357.181 593.564C357.295 593.676 357.385 593.809 357.447 593.956C357.508 594.103 357.54 594.261 357.54 594.42V617.88ZM357.54 564C357.54 564.159 357.508 564.317 357.447 564.464C357.385 564.611 357.295 564.744 357.181 564.856C357.068 564.967 356.933 565.055 356.785 565.114C356.637 565.174 356.479 565.203 356.32 565.2H335.32C335.161 565.203 335.003 565.174 334.856 565.114C334.709 565.055 334.575 564.967 334.462 564.855C334.349 564.743 334.26 564.61 334.199 564.463C334.139 564.316 334.109 564.159 334.11 564V540.54C334.109 540.381 334.139 540.224 334.199 540.077C334.26 539.93 334.349 539.797 334.462 539.685C334.575 539.573 334.709 539.485 334.856 539.426C335.003 539.367 335.161 539.337 335.32 539.34H356.32C356.479 539.337 356.637 539.366 356.785 539.426C356.933 539.485 357.068 539.573 357.181 539.684C357.295 539.796 357.385 539.929 357.447 540.076C357.508 540.223 357.54 540.381 357.54 540.54V564ZM357.54 510.13C357.539 510.289 357.506 510.446 357.444 510.592C357.382 510.739 357.292 510.871 357.178 510.983C357.065 511.094 356.931 511.182 356.784 511.242C356.636 511.301 356.479 511.331 356.32 511.33H335.32C335.001 511.33 334.694 511.204 334.468 510.979C334.241 510.754 334.113 510.449 334.11 510.13V486.66C334.11 486.339 334.237 486.031 334.464 485.804C334.691 485.578 334.999 485.45 335.32 485.45H356.32C356.48 485.449 356.638 485.479 356.786 485.539C356.934 485.599 357.069 485.688 357.182 485.801C357.295 485.913 357.385 486.047 357.447 486.195C357.508 486.342 357.54 486.5 357.54 486.66V510.13ZM357.54 456.24C357.54 456.4 357.508 456.558 357.447 456.705C357.385 456.853 357.295 456.987 357.182 457.099C357.069 457.212 356.934 457.301 356.786 457.361C356.638 457.421 356.48 457.451 356.32 457.45H335.32C334.999 457.45 334.691 457.323 334.464 457.096C334.237 456.869 334.11 456.561 334.11 456.24V432.77C334.111 432.612 334.144 432.457 334.205 432.312C334.267 432.166 334.356 432.035 334.468 431.924C334.581 431.814 334.714 431.727 334.86 431.668C335.006 431.608 335.162 431.579 335.32 431.58H356.32C356.478 431.577 356.636 431.606 356.783 431.665C356.93 431.723 357.064 431.81 357.178 431.921C357.291 432.031 357.382 432.163 357.444 432.309C357.506 432.455 357.539 432.612 357.54 432.77V456.24ZM357.54 402.37C357.539 402.529 357.506 402.686 357.444 402.832C357.382 402.979 357.292 403.111 357.178 403.223C357.065 403.334 356.931 403.422 356.784 403.482C356.636 403.541 356.479 403.571 356.32 403.57H335.32C335.001 403.57 334.694 403.444 334.468 403.219C334.241 402.994 334.113 402.689 334.11 402.37V378.9C334.11 378.742 334.141 378.585 334.202 378.438C334.263 378.292 334.352 378.16 334.465 378.048C334.577 377.936 334.711 377.848 334.858 377.788C335.004 377.729 335.162 377.699 335.32 377.7H356.32C356.479 377.697 356.637 377.726 356.785 377.786C356.933 377.845 357.068 377.933 357.181 378.044C357.295 378.156 357.385 378.289 357.447 378.436C357.508 378.583 357.54 378.741 357.54 378.9V402.37ZM591.53 545.62C591.531 545.869 591.483 546.115 591.389 546.345C591.294 546.575 591.155 546.784 590.979 546.959C590.804 547.135 590.595 547.274 590.365 547.369C590.135 547.463 589.889 547.511 589.64 547.51H495.07C494.569 547.51 494.088 547.311 493.734 546.956C493.379 546.602 493.18 546.121 493.18 545.62V526.71C493.18 526.209 493.379 525.728 493.734 525.374C494.088 525.019 494.569 524.82 495.07 524.82H589.64C590.141 524.82 590.622 525.019 590.976 525.374C591.331 525.728 591.53 526.209 591.53 526.71V545.62ZM482 394.29C481.905 393.922 481.721 393.583 481.466 393.301C481.21 393.02 480.891 392.804 480.534 392.673C480.177 392.543 479.793 392.5 479.416 392.55C479.04 392.6 478.681 392.741 478.37 392.96L478.2 393.08L477.43 394.08L387.05 508.69L386.63 509.25C386.149 509.724 385.87 510.365 385.85 511.04V651.9C385.85 652.195 385.908 652.487 386.021 652.76C386.135 653.032 386.3 653.279 386.51 653.488C386.719 653.696 386.967 653.86 387.24 653.972C387.513 654.084 387.805 654.141 388.1 654.14H480C480.295 654.141 480.587 654.084 480.86 653.972C481.133 653.86 481.381 653.696 481.59 653.488C481.799 653.279 481.965 653.032 482.078 652.76C482.192 652.487 482.25 652.195 482.25 651.9V395.23C482.236 394.902 482.151 394.581 482 394.29ZM443.95 456.54L444.6 455.73C450.78 447.79 461.2 434.97 466.28 428.73L466.95 427.93C467.261 427.551 467.673 427.268 468.139 427.114C468.605 426.961 469.105 426.943 469.581 427.064C470.056 427.185 470.487 427.439 470.824 427.796C471.16 428.153 471.388 428.598 471.48 429.08V458.08C471.475 458.75 471.213 459.393 470.748 459.875C470.282 460.357 469.649 460.642 468.98 460.67H445.93C445.457 460.653 444.998 460.507 444.602 460.249C444.206 459.99 443.888 459.629 443.682 459.203C443.477 458.777 443.391 458.303 443.435 457.832C443.478 457.361 443.649 456.911 443.93 456.53L443.95 456.54ZM429.65 617.08C429.651 617.375 429.594 617.667 429.482 617.94C429.37 618.213 429.206 618.461 428.997 618.67C428.789 618.88 428.542 619.045 428.269 619.159C427.997 619.272 427.705 619.33 427.41 619.33H400C399.403 619.33 398.831 619.093 398.409 618.671C397.987 618.249 397.75 617.677 397.75 617.08V599.93C397.75 599.635 397.808 599.343 397.921 599.071C398.035 598.798 398.2 598.551 398.41 598.343C398.619 598.134 398.867 597.97 399.14 597.858C399.413 597.746 399.705 597.689 400 597.69H427.4C427.994 597.69 428.564 597.926 428.984 598.346C429.404 598.766 429.64 599.336 429.64 599.93L429.65 617.08ZM429.65 585.39C429.651 585.685 429.594 585.977 429.482 586.25C429.37 586.523 429.206 586.771 428.997 586.98C428.789 587.19 428.542 587.355 428.269 587.469C427.997 587.582 427.705 587.64 427.41 587.64H400C399.403 587.64 398.831 587.403 398.409 586.981C397.987 586.559 397.75 585.987 397.75 585.39V568.24C397.75 567.945 397.808 567.653 397.921 567.381C398.035 567.108 398.2 566.861 398.41 566.653C398.619 566.444 398.867 566.28 399.14 566.168C399.413 566.056 399.705 565.999 400 566H427.4C427.695 565.999 427.988 566.056 428.261 566.169C428.534 566.282 428.782 566.447 428.99 566.657C429.199 566.866 429.364 567.115 429.475 567.388C429.587 567.662 429.643 567.955 429.64 568.25L429.65 585.39ZM429.65 553.7C429.65 554.294 429.414 554.864 428.994 555.284C428.574 555.704 428.004 555.94 427.41 555.94H400C399.405 555.94 398.834 555.704 398.412 555.285C397.991 554.865 397.753 554.295 397.75 553.7V536.54C397.75 535.943 397.987 535.371 398.409 534.949C398.831 534.527 399.403 534.29 400 534.29H427.4C427.695 534.29 427.987 534.348 428.259 534.462C428.532 534.575 428.779 534.741 428.987 534.95C429.196 535.159 429.36 535.407 429.472 535.68C429.584 535.953 429.641 536.245 429.64 536.54L429.65 553.7ZM429.73 484.24V522C429.727 522.596 429.489 523.167 429.068 523.588C428.647 524.009 428.076 524.247 427.48 524.25H400.08C399.783 524.251 399.489 524.194 399.214 524.082C398.94 523.969 398.69 523.804 398.479 523.595C398.268 523.386 398.101 523.138 397.986 522.864C397.871 522.59 397.811 522.297 397.81 522V517.24C397.818 516.951 397.879 516.667 397.99 516.4C398.025 516.31 398.069 516.222 398.12 516.14C398.181 516.04 398.248 515.943 398.32 515.85C398.39 515.74 398.49 515.6 398.58 515.48C402.08 510.48 417.89 490.99 424.53 482.85L425.19 482.05C425.429 481.747 425.733 481.5 426.078 481.327C426.424 481.154 426.804 481.06 427.19 481.05C427.788 481.056 428.365 481.27 428.823 481.655C429.281 482.04 429.591 482.572 429.7 483.16L429.73 484.24ZM471.54 617.08C471.541 617.375 471.484 617.667 471.372 617.94C471.26 618.213 471.096 618.461 470.887 618.67C470.679 618.88 470.432 619.045 470.159 619.159C469.887 619.272 469.595 619.33 469.3 619.33H441.9C441.604 619.331 441.31 619.274 441.036 619.162C440.762 619.049 440.512 618.884 440.302 618.675C440.092 618.466 439.926 618.217 439.812 617.943C439.698 617.67 439.64 617.376 439.64 617.08V599.93C439.641 599.635 439.701 599.342 439.815 599.07C439.929 598.797 440.096 598.55 440.306 598.342C440.516 598.134 440.765 597.969 441.038 597.857C441.312 597.746 441.604 597.689 441.9 597.69H469.3C469.894 597.69 470.464 597.926 470.884 598.346C471.304 598.766 471.54 599.336 471.54 599.93V617.08ZM471.54 585.39C471.541 585.685 471.484 585.977 471.372 586.25C471.26 586.523 471.096 586.771 470.887 586.98C470.679 587.19 470.432 587.355 470.159 587.469C469.887 587.582 469.595 587.64 469.3 587.64H441.9C441.604 587.641 441.31 587.584 441.036 587.472C440.762 587.359 440.512 587.194 440.302 586.985C440.092 586.776 439.926 586.527 439.812 586.253C439.698 585.98 439.64 585.686 439.64 585.39V568.24C439.639 567.943 439.696 567.649 439.809 567.375C439.923 567.101 440.089 566.852 440.299 566.642C440.51 566.433 440.76 566.268 441.034 566.156C441.309 566.044 441.603 565.987 441.9 565.99H469.3C469.595 565.99 469.887 566.048 470.159 566.161C470.432 566.275 470.679 566.441 470.887 566.65C471.096 566.859 471.26 567.107 471.372 567.38C471.484 567.653 471.541 567.945 471.54 568.24V585.39ZM471.54 553.7C471.537 554.293 471.3 554.862 470.881 555.281C470.461 555.701 469.893 555.937 469.3 555.94H441.9C441.604 555.941 441.312 555.884 441.038 555.773C440.765 555.661 440.516 555.496 440.306 555.288C440.096 555.08 439.929 554.833 439.815 554.56C439.701 554.288 439.641 553.996 439.64 553.7V536.54C439.64 536.244 439.698 535.95 439.812 535.677C439.926 535.403 440.092 535.155 440.302 534.945C440.512 534.736 440.762 534.571 441.036 534.458C441.31 534.346 441.604 534.289 441.9 534.29H469.3C469.595 534.29 469.887 534.348 470.159 534.462C470.432 534.575 470.679 534.741 470.887 534.95C471.096 535.159 471.26 535.407 471.372 535.68C471.484 535.953 471.541 536.245 471.54 536.54V553.7ZM471.54 522C471.54 522.594 471.304 523.164 470.884 523.584C470.464 524.004 469.894 524.24 469.3 524.24H441.9C441.604 524.241 441.312 524.184 441.038 524.073C440.765 523.961 440.516 523.796 440.306 523.588C440.096 523.38 439.929 523.133 439.815 522.86C439.701 522.588 439.641 522.296 439.64 522V504.84C439.641 504.545 439.701 504.252 439.815 503.98C439.929 503.707 440.096 503.46 440.306 503.252C440.516 503.044 440.765 502.879 441.038 502.767C441.312 502.656 441.604 502.599 441.9 502.6H469.3C469.894 502.6 470.464 502.836 470.884 503.256C471.304 503.676 471.54 504.246 471.54 504.84V522ZM471.54 490.3C471.54 490.894 471.304 491.464 470.884 491.884C470.464 492.304 469.894 492.54 469.3 492.54H441.9C441.604 492.541 441.312 492.484 441.038 492.373C440.765 492.261 440.516 492.096 440.306 491.888C440.096 491.68 439.929 491.433 439.815 491.16C439.701 490.888 439.641 490.595 439.64 490.3V473.14C439.64 472.844 439.698 472.55 439.812 472.277C439.926 472.003 440.092 471.755 440.302 471.546C440.512 471.336 440.762 471.171 441.036 471.058C441.31 470.946 441.604 470.889 441.9 470.89H469.3C469.595 470.89 469.887 470.948 470.159 471.061C470.432 471.175 470.679 471.341 470.887 471.55C471.096 471.759 471.26 472.007 471.372 472.28C471.484 472.553 471.541 472.845 471.54 473.14V490.3Z" fill="white"/>
</g>
<defs>
<clipPath id="clip0_342_7">
<rect width="720" height="720" fill="white"/>
</clipPath>
</defs>
</svg>
