<svg width="720" height="720" viewBox="0 0 720 720" fill="none" xmlns="http://www.w3.org/2000/svg">
<g clip-path="url(#clip0_342_67)">
<path d="M-1.08008 -1.08002H721.08V721.08H-1.08008V-1.08002Z" fill="#BBBBBB"/>
<path d="M89.1202 81.79H51.7202V61.73H114.79V78.9L85.7202 199.43H60.2202L89.1202 81.79ZM180 61.63H202.1V68.39H189.51V83.53H199.39V90.23H189.51V107.71H202.19V114.28H180V61.63ZM206.48 61.63H213.17L225.98 91.63V61.63H233.91V114.28H227.54L214.67 82.82V114.28H206.48V61.63ZM240.6 61.63H262.7V68.39H250.16V83.53H260V90.23H250.12V107.71H262.79V114.28H240.6V61.63ZM267.12 61.63H279.8C290.33 61.63 296.31 65.01 296.31 75.63C296.31 81.94 294.75 86.36 289.81 88.37L297.15 114.31H287.53L281.23 90.19H276.68V114.31H267.12V61.63ZM279.73 84.18C285.26 84.18 287.27 81.78 287.27 76.12C287.27 70.79 285.78 68.19 280.27 68.19H276.7V84.19L279.73 84.18ZM301.18 96.92V79.24C301.18 67.93 304.63 61.04 316.18 61.04C326.97 61.04 330.74 66.63 330.74 76.38V79.11H321.57V76.11C321.57 71.04 321.05 68.05 316.31 68.05C311.24 68.05 310.85 72.15 310.85 76.96V99C310.85 104.46 311.85 107.91 316.57 107.91C321.29 107.91 322.35 104.27 322.35 98.55V93.61H316.7V87.61H331V114.33H324.76L324.11 109.19C322.68 112.57 320.11 115.04 315.2 115.04C304.82 115 301.18 108 301.18 96.92ZM337.32 61.63H346.81V114.28H337.32V61.63ZM361.5 61.63H371.77L382.3 114.28H373.4L371.32 102.12H362.15L360 114.28H351L361.5 61.63ZM370.28 96L366.7 73.9L363.13 96H370.28ZM400.76 61.63H410.31V107.71H423.12V114.28H400.76V61.63ZM427.08 61.63H436.57V114.28H427.08V61.63ZM444.18 61.63H454.12L461.6 98.09L469.33 61.63H479L480 114.28H472.85L472.07 77.68L464.6 114.28H458.8L451.2 77.55L450.48 114.28H443.27L444.18 61.63ZM486.49 61.63H502C511.43 61.63 515.46 67.09 515.46 76.58C515.46 86.91 509.87 90.88 501.35 90.88H496.09V114.28H486.53L486.49 61.63ZM499.75 84.12C505.02 84.12 506.38 82.12 506.38 76.51C506.38 70.9 505.67 68.39 499.75 68.39H496.05V84.12H499.75ZM524.58 61.63H534.85L545.38 114.28H536.48L534.4 102.12H525.23L523.09 114.28H514.09L524.58 61.63ZM533.36 96L529.78 73.9L526.21 96H533.36ZM180 147.63H202.1V154.39H189.51V169.53H199.39V176.23H189.51V193.71H202.19V200.28H180V147.63ZM228.84 147.63H239.11L249.64 200.28H240.73L238.65 188.12H229.49L227.34 200.28H218.34L228.84 147.63ZM237.61 182L234 159.91L230.46 182H237.61ZM252.24 183.44V164.66C252.24 153.87 255.68 147.04 267.24 147.04C278.03 147.04 281.48 153.04 281.48 162.19V166.61H272.25V162.06C272.25 157.64 272.18 154.06 267.31 154.06C262.44 154.06 261.91 157.83 261.91 162.64V185.46C261.91 191.18 263.08 193.91 267.31 193.91C272.05 193.91 272.25 190.2 272.25 185.52V180.78H281.48V185C281.48 194.3 278.36 201 267.24 201C255.68 201 252.24 193.71 252.24 183.44ZM286.88 147.63H309V154.39H296.44V169.53H306.32V176.23H296.44V193.71H309.11V200.28H286.88V147.63ZM312.1 184.94L320.36 183.31C320.62 189.55 322.11 193.58 326.36 193.58C329.41 193.58 330.71 191.5 330.71 188.64C330.71 184.09 328.37 181.56 324.93 178.57L318.3 172.78C314.53 169.53 312.19 165.89 312.19 160.04C312.19 151.72 317.39 147.04 325.77 147.04C335.65 147.04 338.45 153.67 338.97 161.34L330.71 162.77C330.52 157.83 329.8 154.13 325.58 154.13C322.72 154.13 321.16 156.27 321.16 159.07C321.16 162.64 322.65 164.59 325.45 167L332.01 172.78C336.3 176.49 339.88 181.1 339.88 188.06C339.88 195.66 334.55 200.99 326.68 200.99C317 201 312.49 195.4 312.1 184.94ZM342.39 184.94L350.65 183.31C350.91 189.55 352.4 193.58 356.65 193.58C359.71 193.58 361.01 191.5 361.01 188.64C361.01 184.09 358.67 181.56 355.23 178.57L348.59 172.78C344.82 169.53 342.48 165.89 342.48 160.04C342.48 151.72 347.68 147.04 356.07 147.04C365.95 147.04 368.75 153.67 369.27 161.34L361 162.77C360.81 157.83 360.09 154.13 355.87 154.13C353.01 154.13 351.44 156.27 351.44 159.07C351.44 162.64 352.94 164.59 355.74 167L362.3 172.78C366.59 176.49 370.17 181.1 370.17 188.06C370.17 195.66 364.84 200.99 356.97 200.99C347.33 201 342.78 195.4 342.39 184.94ZM374.76 147.63H384.25V200.28H374.76V147.63ZM380.76 130.99H389.76L382 144H376.87L380.76 130.99ZM388.6 147.63H397.05L404.05 184.87L410.61 147.63H419.26L408.66 200.28H399.2L388.6 147.63ZM423.31 147.63H445.41V154.39H432.87V169.53H442.75V176.23H432.87V193.71H445.54V200.28H423.31V147.63ZM449.83 147.63H459.39V193.71H472.19V200.28H449.83V147.63ZM360.26 350.75C339.227 350.746 318.665 356.98 301.174 368.662C283.684 380.345 270.051 396.953 262 416.384C253.948 435.815 251.84 457.198 255.942 477.827C260.044 498.457 270.171 517.407 285.043 532.28C299.915 547.154 318.864 557.283 339.493 561.386C360.122 565.49 381.505 563.384 400.937 555.334C420.369 547.285 436.978 533.653 448.662 516.164C460.347 498.675 466.582 478.113 466.58 457.08C466.58 428.881 455.379 401.837 435.44 381.897C415.502 361.956 388.459 350.753 360.26 350.75ZM352.39 392.75C352.39 389.21 355.94 385.31 360.31 385.31C364.68 385.31 368.18 389.21 368.18 392.75V429.25C368.18 432.78 364.66 436.63 360.31 436.63C355.96 436.63 352.39 432.78 352.39 429.25V392.75ZM360.28 511.56C347.056 511.549 334.273 506.802 324.248 498.178C314.223 489.554 307.619 477.624 305.632 464.55C303.646 451.476 306.408 438.123 313.419 426.911C320.43 415.698 331.226 407.368 343.85 403.43V424C336.592 427.683 330.787 433.703 327.37 441.09C323.954 448.477 323.125 456.799 325.019 464.714C326.912 472.63 331.417 479.676 337.806 484.718C344.195 489.759 352.097 492.501 360.235 492.501C368.374 492.501 376.275 489.759 382.664 484.718C389.054 479.676 393.558 472.63 395.452 464.714C397.345 456.799 396.517 448.477 393.1 441.09C389.683 433.703 383.878 427.683 376.62 424V403.42C389.266 407.331 400.089 415.648 407.125 426.86C414.161 438.072 416.943 451.435 414.965 464.523C412.988 477.611 406.382 489.556 396.348 498.188C386.314 506.821 373.517 511.569 360.28 511.57M238.21 456.15C238.21 451.33 233.94 447.43 230.04 447.43H183.48C179.55 447.43 175.24 451.33 175.24 456.15C175.24 460.97 179.55 464.91 183.48 464.91H230C233.9 464.91 238.17 460.98 238.17 456.15M545.34 456.15C545.34 451.33 541.06 447.43 537.16 447.43H490.6C486.68 447.43 482.37 451.33 482.37 456.15C482.37 460.97 486.68 464.91 490.6 464.91H537.16C541.06 464.91 545.34 460.98 545.34 456.15Z" fill="white"/>
<path d="M360.31 641.21C365.12 641.21 369.03 636.94 369.03 633.04V586.48C369.03 582.56 365.12 578.24 360.31 578.24C355.5 578.24 351.54 582.56 351.54 586.48V633C351.54 636.9 355.48 641.17 360.31 641.17M520.9 548.07C523.29 543.89 521.53 538.37 518.14 536.44L477.73 513.31C474.33 511.36 468.64 512.61 466.25 516.8C463.86 520.99 465.64 526.54 469.05 528.49L509.46 551.61C512.84 553.55 518.46 552.26 520.9 548.07ZM268.39 616.78C272.57 619.17 278.08 617.4 280.02 614.02L303.15 573.61C305.15 570.2 303.85 564.52 299.66 562.13C295.47 559.74 289.91 561.52 287.97 564.92L264.84 605.33C262.91 608.71 264.19 614.33 268.39 616.78ZM452.55 616.57C456.72 614.17 457.98 608.52 456.04 605.14L432.83 564.78C430.83 561.37 425.34 559.59 421.16 561.99C416.98 564.39 415.71 570.09 417.68 573.5L440.88 613.86C442.83 617.24 448.35 618.98 452.55 616.57ZM199.89 548.43C202.29 552.6 207.89 553.86 211.32 551.92L251.67 528.71C255.08 526.71 256.88 521.22 254.47 517.04C252.06 512.86 246.36 511.59 242.97 513.55L202.6 536.76C199.22 538.7 197.48 544.24 199.89 548.43ZM360.31 334.09C365.12 334.09 369.03 329.82 369.03 325.92V279.36C369.03 275.43 365.12 271.12 360.31 271.12C355.5 271.12 351.54 275.43 351.54 279.36V325.92C351.54 329.82 355.48 334.09 360.31 334.09ZM254.34 395.51C256.74 391.33 254.98 385.82 251.59 383.88L211.18 360.76C207.77 358.76 202.09 360.05 199.69 364.23C197.29 368.41 199.09 373.98 202.49 375.93L242.9 399.06C246.29 401 251.9 399.71 254.34 395.51ZM420.94 350.23C425.13 352.62 430.63 350.85 432.57 347.47L455.7 307.06C457.65 303.65 456.4 297.97 452.22 295.57C448.04 293.17 442.47 294.96 440.52 298.37L417.4 338.78C415.46 342.17 416.74 347.83 420.94 350.23ZM299.45 350.33C303.62 347.93 304.88 342.28 302.94 338.9L279.73 298.53C277.73 295.13 272.24 293.34 268.06 295.75C263.88 298.16 262.61 303.85 264.57 307.25L287.78 347.61C289.78 350.99 295.25 352.74 299.45 350.33ZM466.13 395.32C468.53 399.5 474.18 400.76 477.56 398.82L517.92 375.61C521.32 373.61 523.12 368.11 520.72 363.93C518.32 359.75 512.62 358.49 509.21 360.45L468.84 383.66C465.46 385.6 463.72 391.14 466.13 395.32Z" fill="white"/>
</g>
<defs>
<clipPath id="clip0_342_67">
<rect width="720" height="720" fill="white"/>
</clipPath>
</defs>
</svg>
